<?xml version="1.0" standalone="no"?>
<!DOCTYPE svg PUBLIC "-//W3C//DTD SVG 20010904//EN"
 "http://www.w3.org/TR/2001/REC-SVG-20010904/DTD/svg10.dtd">
<svg version="1.0" xmlns="http://www.w3.org/2000/svg"
 width="700.000000pt" height="700.000000pt" viewBox="0 0 700.000000 700.000000"
 preserveAspectRatio="xMidYMid meet">
<metadata>
Created by potrace 1.14, written by Peter Selinger 2001-2017
</metadata>
<g transform="translate(0.000000,700.000000) scale(0.100000,-0.100000)"
fill="#000000" stroke="none">
<path d="M2275 4374 l0 -1746 -35 6 c-19 3 -46 8 -60 12 -44 10 -227 11 -287
2 -84 -13 -93 -15 -143 -27 -341 -89 -675 -340 -805 -606 -63 -129 -80 -233
-58 -350 53 -280 278 -437 603 -421 145 7 182 13 335 63 104 33 209 86 321
161 231 155 393 368 455 598 l22 79 1 1540 c1 847 5 1542 9 1543 5 2 34 -19
66 -47 216 -192 484 -328 791 -401 47 -11 108 -23 135 -26 28 -3 56 -7 64 -10
22 -7 200 -18 301 -18 91 1 290 13 300 19 3 1 32 6 65 10 350 39 845 233 1208
471 l37 24 0 -1311 0 -1312 -42 8 c-175 31 -317 28 -471 -11 -454 -115 -850
-485 -882 -824 -8 -85 14 -194 59 -285 57 -116 150 -194 288 -243 115 -40 315
-41 478 -1 189 47 394 148 537 267 204 171 331 370 372 587 9 44 11 586 9
2027 l-3 1967 -120 -96 c-363 -290 -729 -489 -1095 -597 -82 -24 -276 -64
-350 -71 -36 -4 -76 -9 -90 -11 -34 -6 -319 -5 -350 0 -14 3 -52 7 -85 10 -65
6 -91 10 -175 28 -30 6 -59 12 -65 14 -5 1 -30 7 -55 14 -25 7 -52 13 -60 15
-21 4 -205 69 -265 93 -171 69 -400 194 -585 320 -103 70 -345 256 -355 272
-3 5 -9 10 -13 10 -4 0 -7 -786 -7 -1746z"/>
</g>
</svg>
