<?xml version="1.0" ?>
<svg viewBox="0 0 1000 1000" xmlns="http://www.w3.org/2000/svg">
    <path d="
        m 275 975
        c -63.7 -58.0125 -28.4375 -150.15 76.2125 -204.75
        c 35.2625 -17.0625 61.425 -25.025 106.925 -23.8875
        c 28.4375 1.1375 60.2875 17.0625 60.2875 17.0625
        c 0 -205.8875 -1.1375 -594.9125 -1.1375 -786.0125
        c 11.375 0 19.3375 -1.1375 35.2625 -1.1375
        c 0 11.375 0 20.475 0 29.575
        c 0 10.2375 0 15.925 1.1375 22.75
        c 11.375 71.6625 27.3 100.1 106.925 187.6875
        c 101.2375 112.6125 130.8125 179.725 130.8125 269.5875
        c -1.1375 84.175 -75.075 263.9 -91 257.075
        c 22.75 -63.7 54.6 -131.95 62.5625 -188.825
        c 10.2375 -69.3875 -18.2 -167.2125 -63.7 -218.4
        c -36.4 -43.225 -122.85 -80.7625 -146.7375 -80.7625
        c 0 0 -1.1375 414.05 -1.1375 571.025
        c 0 26.1625 -23.8875 72.8 -37.5375 88.725
        c -62.5625 75.075 -184.275 109.2 -238.875 60.2875
        z
    "/>
</svg>