<?xml version="1.0" ?>
<svg preserveAspectRatio="xMidYMid meet" viewBox="0 0 1000 1000" xmlns="http://www.w3.org/2000/svg">
    <path d="
        m 550 550
        c -15.1545 3.1082 -29.1987 11.424 -42.6035 24.6711
        c -13.4214 13.4902 -20.6061 28.877 -21.7806 45.9002
        c -0.7382 10.7 2.0791 23.1117 8.259 36.4883
        c 6.1629 13.6202 16.234 23.8444 29.7087 30.8829
        c 4.5642 1.2922 6.5902 3.8754 6.3553 7.2801
        c -0.0838 1.2161 -1.874 2.3142 -6.0851 3.001
        c -21.796 -7.124 -39.2558 -20.3016 -52.1688 -39.0299
        c -12.8963 -18.9712 -18.7996 -39.9036 -17.6766 -63.2833
        c 2.4595 -24.9979 11.6267 -47.8223 27.4848 -68.2305
        c 16.1187 -20.6342 35.945 -34.66 59.479 -42.0767
        l -10.8628 -87.4921
        c -39.6862 28.5375 -72.3875 58.7789 -98.3809 91.1936
        c -25.9766 32.1713 -40.6978 68.0515 -44.4078 107.6239
        c -0.7374 17.7861 1.7277 35.3048 7.412 52.3125
        c 5.6675 17.251 14.8653 33.035 27.5592 47.8386
        c 25.6487 29.3808 60.491 46.2013 104.0228 50.6715
        c 14.9365 0.0527 30.9653 -1.5287 48.3301 -4.7288
        l -24.6449 -193.0224
        z
        m 17.7181 -1.2207
        l 25.1236 189.635
        c 38.579 -12.4878 59.6134 -44.0227 63.0698 -94.1191
        c -1.0363 -16.9314 -4.8711 -32.3452 -12.2361 -46.2927
        c -7.1042 -14.1733 -17.0915 -25.6135 -30.205 -34.3377
        c -13.1135 -8.7239 -28.2017 -13.6746 -45.7523 -14.8855
        z
        m -32.5209 -256.363
        c 8.3794 -4.3086 18.2296 -12.1808 29.0459 -23.4074
        c 10.7995 -10.9833 21.506 -24.1721 31.8424 -39.097
        c 10.5972 -15.1512 19.2612 -30.68 25.9915 -46.5866
        c 6.7138 -15.6635 10.4521 -30.7993 11.4254 -44.9041
        c 0.4195 -6.0797 0.3513 -12.193 -0.4984 -17.6272
        c -0.371 -8.8221 -2.5826 -15.8163 -6.895 -20.7566
        c -4.3295 -4.6969 -10.0119 -7.5325 -17.3245 -8.037
        c -14.6256 -1.0092 -28.4091 7.0801 -41.3511 24.2687
        c -10.0929 14.9418 -18.9244 32.9027 -25.7301 53.4466
        c -7.066 20.7704 -11.6777 41.4659 -13.6251 62.5894
        c -0.4423 24.1598 2.099 44.1271 7.119 60.1113
        z
        m -16.3297 13.0454
        c -8.2511 -40.1533 -11.5765 -80.6997 -9.9767 -121.6392
        c 2.056 -26.2475 6.4319 -50.6243 13.1278 -73.1306
        c 6.4523 -22.5231 14.8804 -41.7336 25.3175 -58.1175
        c 10.1936 -16.4008 21.5643 -28.5664 33.8687 -36.5138
        c 11.0184 -7.0586 18.8602 -10.6712 23.004 -10.3855
        c 3.1691 0.2186 5.7666 1.6196 8.053 3.9766
        c 2.2866 2.357 5.2038 6.2233 8.7685 11.3563
        c 26.1716 43.1003 37.3742 93.7197 33.381 151.5982
        c -1.896 27.4801 -7.3979 53.9784 -16.5561 80.2244
        c -8.8978 26.0197 -21.1243 50.5878 -36.6461 73.2181
        c -15.7822 22.857 -33.7838 42.3839 -54.2655 58.8078
        l 13.1337 97.1782
        c 10.8093 -0.4759 18.1893 -0.944 22.3331 -0.6579
        c 18.5255 1.2783 34.8327 6.313 49.6525 15.1548
        c 14.8196 8.8417 27.2614 20.2069 37.0638 34.3223
        c 9.8192 13.8722 17.0668 29.5217 21.7424 46.9485
        c 4.4321 17.4099 6.376 35.3813 5.101 53.8635
        c -1.98 28.6962 -11.3486 54.439 -28.089 76.9849
        c -16.7404 22.5473 -40.6011 38.2487 -71.8425 47.3323
        c 1.1281 12.0506 3.3491 29.5528 6.9413 52.0355
        c 3.3316 22.7104 5.7631 40.7161 7.2949 54.0148
        c 1.5312 13.3005 1.634 26.0144 0.7782 38.4171
        c -1.3254 19.2111 -7.1312 35.9142 -17.4343 50.3539
        c -10.5469 14.4211 -24.0276 25.2185 -40.686 32.3773
        c -16.4147 7.1756 -34.2505 10.0987 -53.2636 8.786
        c -26.8133 -1.85 -49.694 -11.0033 -68.6585 -27.2165
        c -18.9477 -16.4583 -28.2806 -37.3817 -27.4771 -63.2276
        c 1.5198 -11.3791 4.9394 -21.8944 10.5193 -31.7719
        c 5.5797 -9.8777 12.7316 -17.691 21.6994 -23.4247
        c 8.7409 -5.9955 18.9697 -8.7095 30.4768 -8.6482
        c 9.5064 0.6547 18.3408 3.9535 26.52 9.648
        c 7.9188 5.9225 14.2575 13.4451 18.7554 22.7972
        c 4.2543 9.3337 6.2476 19.49 5.5093 30.1907
        c -0.9898 14.3479 -6.7038 26.1708 -17.142 35.4685
        c -10.4381 9.2979 -23.2222 13.547 -38.0914 12.52
        l -5.6063 -0.3859
        c 8.4999 15.2474 23.5802 23.8617 45.2745 25.3596
        c 10.9689 0.7567 22.3497 -0.9012 33.8645 -4.5061
        c 11.7754 -3.8292 21.7014 -9.2535 30.2823 -16.4801
        c 8.5809 -7.2268 14.5141 -15.125 17.3118 -23.7292
        c 4.8319 -9.6837 7.7382 -23.411 8.9294 -40.6768
        c 0.8053 -11.6732 0.392 -23.4297 -0.9964 -35.2543
        c -1.4054 -11.5815 -3.7609 -27.1384 -7.0836 -46.4259
        c -3.3394 -19.0445 -5.7454 -33.872 -7.0075 -43.9775
        c -14.8772 2.6391 -30.1244 3.5419 -45.9684 2.4486
        c -26.5695 -1.8348 -51.3074 -8.9169 -74.1969 -21.4913
        c -22.8895 -12.5744 -42.5685 -29.0819 -59.2643 -49.7823
        c -16.4521 -20.6828 -28.8362 -43.5284 -37.1188 -69.0232
        c -8.0558 -25.2347 -11.3962 -51.3659 -9.7943 -78.1332
        c 2.6864 -24.7377 8.962 -48.2504 19.2808 -70.0181
        c 10.3356 -22.0109 23.0249 -42.6376 38.2952 -61.6201
        c 15.2698 -18.9828 30.9097 -36.2293 46.9031 -51.4967
        c 16.2205 -15.0076 37.391 -34.3161 63.9823 -57.6486
        z
    "/>
</svg>