<?xml version="1.0" ?>
<svg preserveAspectRatio="xMidYMid meet" viewBox="0 0 100 100" xmlns="http://www.w3.org/2000/svg">
    <path d="
        m 55 55
        c -1.5155 0.3108 -2.9199 1.1424 -4.2603 2.4671
        c -1.3421 1.349 -2.0606 2.8877 -2.1781 4.59
        c -0.0738 1.07 0.2079 2.3112 0.8259 3.6488
        c 0.6163 1.362 1.6234 2.3844 2.9709 3.0883
        c 0.4564 0.1292 0.659 0.3875 0.6355 0.728
        c -0.0084 0.1216 -0.1874 0.2314 -0.6085 0.3001
        c -2.1796 -0.7124 -3.9256 -2.0302 -5.2169 -3.903
        c -1.2896 -1.8971 -1.88 -3.9904 -1.7677 -6.3283
        c 0.246 -2.4998 1.1627 -4.7822 2.7485 -6.8231
        c 1.6119 -2.0634 3.5945 -3.466 5.9479 -4.2077
        l -1.0863 -8.7492
        c -3.9686 2.8538 -7.2388 5.8779 -9.8381 9.1194
        c -2.5977 3.2171 -4.0698 6.8052 -4.4408 10.7624
        c -0.0737 1.7786 0.1728 3.5305 0.7412 5.2313
        c 0.5668 1.7251 1.4865 3.3035 2.7559 4.7839
        c 2.5649 2.9381 6.0491 4.6201 10.4023 5.0672
        c 1.4937 0.0053 3.0965 -0.1529 4.833 -0.4729
        l -2.4645 -19.3022
        z
        m 1.7718 -0.1221
        l 2.5124 18.9635
        c 3.8579 -1.2488 5.9613 -4.4023 6.307 -9.4119
        c -0.1036 -1.6931 -0.4871 -3.2345 -1.2236 -4.6293
        c -0.7104 -1.4173 -1.7092 -2.5614 -3.0205 -3.4338
        c -1.3114 -0.8724 -2.8202 -1.3675 -4.5752 -1.4886
        z
        m -3.2521 -25.6363
        c 0.8379 -0.4309 1.823 -1.2181 2.9046 -2.3407
        c 1.0799 -1.0983 2.1506 -2.4172 3.1842 -3.9097
        c 1.0597 -1.5151 1.9261 -3.068 2.5991 -4.6587
        c 0.6714 -1.5664 1.0452 -3.0799 1.1425 -4.4904
        c 0.042 -0.608 0.0351 -1.2193 -0.0498 -1.7627
        c -0.0371 -0.8822 -0.2583 -1.5816 -0.6895 -2.0757
        c -0.433 -0.4697 -1.0012 -0.7532 -1.7325 -0.8037
        c -1.4626 -0.1009 -2.8409 0.708 -4.1351 2.4269
        c -1.0093 1.4942 -1.8924 3.2903 -2.573 5.3447
        c -0.7066 2.077 -1.1678 4.1466 -1.3625 6.2589
        c -0.0442 2.416 0.2099 4.4127 0.7119 6.0111
        z
        m -1.633 1.3045
        c -0.8251 -4.0153 -1.1577 -8.07 -0.9977 -12.1639
        c 0.2056 -2.6248 0.6432 -5.0624 1.3128 -7.3131
        c 0.6452 -2.2523 1.488 -4.1734 2.5318 -5.8117
        c 1.0194 -1.6401 2.1564 -2.8566 3.3869 -3.6514
        c 1.1018 -0.7059 1.886 -1.0671 2.3004 -1.0386
        c 0.3169 0.0219 0.5767 0.162 0.8053 0.3977
        c 0.2287 0.2357 0.5204 0.6223 0.8769 1.1356
        c 2.6172 4.31 3.7374 9.372 3.3381 15.1598
        c -0.1896 2.748 -0.7398 5.3978 -1.6556 8.0224
        c -0.8898 2.602 -2.1124 5.0588 -3.6646 7.3218
        c -1.5782 2.2857 -3.3784 4.2384 -5.4266 5.8808
        l 1.3134 9.7178
        c 1.0809 -0.0476 1.8189 -0.0944 2.2333 -0.0658
        c 1.8526 0.1278 3.4833 0.6313 4.9653 1.5155
        c 1.482 0.8842 2.7261 2.0207 3.7064 3.4322
        c 0.9819 1.3872 1.7067 2.9522 2.1742 4.6949
        c 0.4432 1.741 0.6376 3.5381 0.5101 5.3864
        c -0.198 2.8696 -1.1349 5.4439 -2.8089 7.6985
        c -1.674 2.2547 -4.0601 3.8249 -7.1843 4.7332
        c 0.1128 1.2051 0.3349 2.9553 0.6941 5.2035
        c 0.3332 2.271 0.5763 4.0716 0.7295 5.4015
        c 0.1531 1.33 0.1634 2.6014 0.0778 3.8417
        c -0.1325 1.9211 -0.7131 3.5914 -1.7434 5.0354
        c -1.0547 1.4421 -2.4028 2.5219 -4.0686 3.2377
        c -1.6415 0.7176 -3.4251 1.0099 -5.3264 0.8786
        c -2.6813 -0.185 -4.9694 -1.1003 -6.8659 -2.7217
        c -1.8948 -1.6458 -2.8281 -3.7382 -2.7477 -6.3228
        c 0.152 -1.1379 0.4939 -2.1894 1.0519 -3.1772
        c 0.558 -0.9878 1.2732 -1.7691 2.1699 -2.3425
        c 0.8741 -0.5996 1.897 -0.871 3.0477 -0.8648
        c 0.9506 0.0655 1.8341 0.3954 2.652 0.9648
        c 0.7919 0.5923 1.4258 1.3445 1.8755 2.2797
        c 0.4254 0.9334 0.6248 1.949 0.5509 3.0191
        c -0.099 1.4348 -0.6704 2.6171 -1.7142 3.5469
        c -1.0438 0.9298 -2.3222 1.3547 -3.8091 1.252
        l -0.5606 -0.0386
        c 0.85 1.5247 2.358 2.3862 4.5275 2.536
        c 1.0969 0.0757 2.235 -0.0901 3.3864 -0.4506
        c 1.1775 -0.3829 2.1701 -0.9254 3.0282 -1.648
        c 0.8581 -0.7227 1.4514 -1.5125 1.7312 -2.3729
        c 0.4832 -0.9684 0.7738 -2.3411 0.8929 -4.0677
        c 0.0805 -1.1673 0.0392 -2.343 -0.0996 -3.5254
        c -0.1405 -1.1582 -0.3761 -2.7138 -0.7084 -4.6426
        c -0.3339 -1.9044 -0.5745 -3.3872 -0.7008 -4.3978
        c -1.4877 0.2639 -3.0124 0.3542 -4.5968 0.2449
        c -2.657 -0.1835 -5.1307 -0.8917 -7.4197 -2.1491
        c -2.289 -1.2574 -4.2569 -2.9082 -5.9264 -4.9782
        c -1.6452 -2.0683 -2.8836 -4.3528 -3.7119 -6.9023
        c -0.8056 -2.5235 -1.1396 -5.1366 -0.9794 -7.8133
        c 0.2686 -2.4738 0.8962 -4.825 1.9281 -7.0018
        c 1.0336 -2.2011 2.3025 -4.2638 3.8295 -6.162
        c 1.527 -1.8983 3.091 -3.6229 4.6903 -5.1497
        c 1.6221 -1.5008 3.7391 -3.4316 6.3982 -5.7649
        z
    "/>
</svg>