<?xml version="1.0" ?>
<svg viewBox="0 0 100 100" xmlns="http://www.w3.org/2000/svg">
    <path d="
        m 27.5 100
        c -6.37 -5.8013 -2.8438 -15.015 7.6213 -20.475
        c 3.5263 -1.7063 6.1425 -2.5025 10.6925 -2.3887
        c 2.8438 0.1138 6.0288 1.7063 6.0288 1.7063
        c 0 -20.5888 -0.1138 -59.4913 -0.1138 -78.6013
        c 1.1375 0 1.9337 -0.1138 3.5263 -0.1138
        c 0 1.1375 0 2.0475 0 2.9575
        c 0 1.0238 0 1.5925 0.1138 2.275
        c 1.1375 7.1662 2.73 10.01 10.6925 18.7688
        c 10.1238 11.2613 13.0813 17.9725 13.0813 26.9587
        c -0.1138 8.4175 -7.5075 26.39 -9.1 25.7075
        c 2.275 -6.37 5.46 -13.195 6.2563 -18.8825
        c 1.0238 -6.9388 -1.82 -16.7213 -6.37 -21.84
        c -3.64 -4.3225 -12.285 -8.0762 -14.6738 -8.0762
        c 0 0 -0.1138 41.405 -0.1138 57.1025
        c 0 2.6163 -2.3887 7.28 -3.7538 8.8725
        c -6.2563 7.5075 -18.4275 10.92 -23.8875 6.0288
        z
    "/>
</svg>