<?xml version="1.0" ?>
<svg viewBox="0 0 100 100" xmlns="http://www.w3.org/2000/svg"
     style="
        fill: none;
        stroke: black;
        stroke-width: 5%;
    ">
    <path d="
        m 3.5 100
        c -6.37 -5.8013 -2.8438 -15.015 7.6213 -20.475
        c 3.5263 -1.7063 6.1425 -2.5025 10.6925 -2.3887
        c 2.8438 0.1138 6.0288 1.7063 6.0288 1.7063

        v -79

        h 0
        c 25 20 45 20 70 0
        h 0

        v 79

        c 0 2.6163 -2.3887 7.28 -3.7538 8.8725
        c -6.2563 7.5075 -18.4275 10.92 -23.8875 6.0288
        c -6.37 -5.8013 -2.8438 -15.015 7.6213 -20.475
        c 3.5263 -1.7063 6.1425 -2.5025 10.6925 -2.3887
        c 2.8438 0.1138 6.0288 1.7063 6.0288 1.7063

        v -60

        c -21.5 20 -41.5 20 -63.5 0

        v 72.6

        c 0 2.6163 -2.3887 7.28 -3.7538 8.8725
        c -6.2563 7.5075 -18.4275 10.92 -23.8875 6.0288

        z
    "/>
</svg>