<?xml version="1.0" ?>
<svg viewBox="0 0 100 100" xmlns="http://www.w3.org/2000/svg"
     style="
        fill: none;
        stroke: black;
        stroke-width: 5%;
    ">
        <rect style="
            width: 100%;
            height: 100%;
            x: 0%;
            y: 0%;
            rx: 25%;
            ry: 25%;
        "/>
        <path d="
            m 77.5 35
            c 0.417 -1.389 0 -2.411 -1.986 -2.411
            h -6.564
            c -1.671 0 -2.439 0.882 -2.856 1.857
            c 0 0 -0.338 8.136 -8.067 13.422
            c -1.53 1.53 -2.223 2.016 -3.06 2.016
            c -0.417 0 -1.023 -0.488 -1.023 -1.878
            v -13.005
            c 0 -1.668 -0.483 -2.411 -1.875 -2.411
            h -10.314
            c -1.044 0 -1.671 0.774 -1.671 1.509
            c 0 1.58 2.364 1.947 2.61 6.398
            v 9.666
            c 0 2.121 -0.384 2.504 -1.218 2.504
            c -2.223 0 -7.638 -8.175 -10.847 -17.526
            c -0.63 -1.818 -1.26 -2.553 -2.936 -2.553
            h -6.564
            c -1.875 0 -2.25 0.882 -2.25 1.857
            c 0 1.739 2.223 10.362 10.359 21.768
            c 5.427 7.788 13.064 12.009 20.021 12.009
            c 4.173 0 4.689 -0.939 4.689 -2.553
            v -5.886
            c 0 -1.875 0.396 -2.25 1.716 -2.25
            c 0.975 0 2.643 0.486 6.54 4.242
            c 4.449 4.449 5.184 6.447 7.689 6.447
            h 6.564
            c 1.875 0 2.814 -0.939 2.274 -2.79
            c -0.591 -1.845 -2.718 -4.518 -5.538 -7.692
            c -1.53 -1.809 -3.822 -3.756 -4.521 -4.728
            c -0.972 -1.251 -0.693 -1.809 0 -2.922
            c 0 0 7.998 -11.265 8.832 -15.089
        "/>
</svg>